<mxfile host="Electron" modified="2023-12-12T15:46:53.829Z" agent="Mozilla/5.0 (X11; Linux x86_64) AppleWebKit/537.36 (KHTML, like Gecko) draw.io/22.1.2 Chrome/114.0.5735.289 Electron/25.9.4 Safari/537.36" etag="C6Wzr7iiZqIvLfh7WpLv" version="22.1.2" type="device">
  <diagram name="Page-1" id="NSS6uKvhHSDFyIDU8MHt">
    <mxGraphModel dx="819" dy="482" grid="1" gridSize="10" guides="1" tooltips="1" connect="1" arrows="1" fold="1" page="1" pageScale="1" pageWidth="850" pageHeight="1100" math="0" shadow="0">
      <root>
        <mxCell id="0" />
        <mxCell id="1" parent="0" />
        <mxCell id="5fFiv4stRQdmLSJkmqLu-1" value="sd Definovanie tarifov" style="shape=umlFrame;whiteSpace=wrap;html=1;pointerEvents=0;width=150;height=30;" vertex="1" parent="1">
          <mxGeometry x="50" y="60" width="770" height="660" as="geometry" />
        </mxCell>
        <mxCell id="5fFiv4stRQdmLSJkmqLu-3" value="" style="shape=umlLifeline;perimeter=lifelinePerimeter;whiteSpace=wrap;html=1;container=1;dropTarget=0;collapsible=0;recursiveResize=0;outlineConnect=0;portConstraint=eastwest;newEdgeStyle={&quot;curved&quot;:0,&quot;rounded&quot;:0};participant=umlActor;" vertex="1" parent="1">
          <mxGeometry x="150" y="130" width="20" height="590" as="geometry" />
        </mxCell>
        <mxCell id="5fFiv4stRQdmLSJkmqLu-6" value="" style="html=1;points=[[0,0,0,0,5],[0,1,0,0,-5],[1,0,0,0,5],[1,1,0,0,-5]];perimeter=orthogonalPerimeter;outlineConnect=0;targetShapes=umlLifeline;portConstraint=eastwest;newEdgeStyle={&quot;curved&quot;:0,&quot;rounded&quot;:0};fillColor=#CCCCCC;" vertex="1" parent="5fFiv4stRQdmLSJkmqLu-3">
          <mxGeometry x="5" y="70" width="10" height="480" as="geometry" />
        </mxCell>
        <mxCell id="5fFiv4stRQdmLSJkmqLu-4" value="Administrator" style="text;html=1;align=center;verticalAlign=middle;resizable=0;points=[];autosize=1;strokeColor=none;fillColor=none;" vertex="1" parent="1">
          <mxGeometry x="115" y="100" width="90" height="30" as="geometry" />
        </mxCell>
        <mxCell id="5fFiv4stRQdmLSJkmqLu-5" value=":Administratorske konto" style="shape=umlLifeline;perimeter=lifelinePerimeter;whiteSpace=wrap;html=1;container=1;dropTarget=0;collapsible=0;recursiveResize=0;outlineConnect=0;portConstraint=eastwest;newEdgeStyle={&quot;curved&quot;:0,&quot;rounded&quot;:0};" vertex="1" parent="1">
          <mxGeometry x="280" y="120" width="100" height="600" as="geometry" />
        </mxCell>
        <mxCell id="5fFiv4stRQdmLSJkmqLu-7" value="" style="html=1;points=[[0,0,0,0,5],[0,1,0,0,-5],[1,0,0,0,5],[1,1,0,0,-5]];perimeter=orthogonalPerimeter;outlineConnect=0;targetShapes=umlLifeline;portConstraint=eastwest;newEdgeStyle={&quot;curved&quot;:0,&quot;rounded&quot;:0};fillColor=#CCCCCC;" vertex="1" parent="5fFiv4stRQdmLSJkmqLu-5">
          <mxGeometry x="45" y="129" width="10" height="41" as="geometry" />
        </mxCell>
        <mxCell id="5fFiv4stRQdmLSJkmqLu-14" value="" style="html=1;points=[[0,0,0,0,5],[0,1,0,0,-5],[1,0,0,0,5],[1,1,0,0,-5]];perimeter=orthogonalPerimeter;outlineConnect=0;targetShapes=umlLifeline;portConstraint=eastwest;newEdgeStyle={&quot;curved&quot;:0,&quot;rounded&quot;:0};fillColor=#CCCCCC;" vertex="1" parent="5fFiv4stRQdmLSJkmqLu-5">
          <mxGeometry x="45" y="200" width="10" height="30" as="geometry" />
        </mxCell>
        <mxCell id="5fFiv4stRQdmLSJkmqLu-41" value="" style="html=1;points=[[0,0,0,0,5],[0,1,0,0,-5],[1,0,0,0,5],[1,1,0,0,-5]];perimeter=orthogonalPerimeter;outlineConnect=0;targetShapes=umlLifeline;portConstraint=eastwest;newEdgeStyle={&quot;curved&quot;:0,&quot;rounded&quot;:0};fillColor=#CCCCCC;" vertex="1" parent="5fFiv4stRQdmLSJkmqLu-5">
          <mxGeometry x="45" y="418" width="10" height="40" as="geometry" />
        </mxCell>
        <mxCell id="5fFiv4stRQdmLSJkmqLu-36" value="" style="html=1;points=[[0,0,0,0,5],[0,1,0,0,-5],[1,0,0,0,5],[1,1,0,0,-5]];perimeter=orthogonalPerimeter;outlineConnect=0;targetShapes=umlLifeline;portConstraint=eastwest;newEdgeStyle={&quot;curved&quot;:0,&quot;rounded&quot;:0};fillColor=#CCCCCC;" vertex="1" parent="5fFiv4stRQdmLSJkmqLu-5">
          <mxGeometry x="45" y="310" width="10" height="41" as="geometry" />
        </mxCell>
        <mxCell id="5fFiv4stRQdmLSJkmqLu-44" style="edgeStyle=orthogonalEdgeStyle;rounded=0;orthogonalLoop=1;jettySize=auto;html=1;curved=0;elbow=horizontal;" edge="1" parent="5fFiv4stRQdmLSJkmqLu-5" source="5fFiv4stRQdmLSJkmqLu-41" target="5fFiv4stRQdmLSJkmqLu-41">
          <mxGeometry relative="1" as="geometry" />
        </mxCell>
        <mxCell id="5fFiv4stRQdmLSJkmqLu-45" value="validateForm()" style="edgeLabel;html=1;align=center;verticalAlign=middle;resizable=0;points=[];" vertex="1" connectable="0" parent="5fFiv4stRQdmLSJkmqLu-44">
          <mxGeometry x="0.2667" y="-1" relative="1" as="geometry">
            <mxPoint x="26" y="-8" as="offset" />
          </mxGeometry>
        </mxCell>
        <mxCell id="5fFiv4stRQdmLSJkmqLu-50" value="" style="html=1;points=[[0,0,0,0,5],[0,1,0,0,-5],[1,0,0,0,5],[1,1,0,0,-5]];perimeter=orthogonalPerimeter;outlineConnect=0;targetShapes=umlLifeline;portConstraint=eastwest;newEdgeStyle={&quot;curved&quot;:0,&quot;rounded&quot;:0};fillColor=#CCCCCC;" vertex="1" parent="5fFiv4stRQdmLSJkmqLu-5">
          <mxGeometry x="45" y="500" width="10" height="40" as="geometry" />
        </mxCell>
        <mxCell id="5fFiv4stRQdmLSJkmqLu-8" style="rounded=0;orthogonalLoop=1;jettySize=auto;html=1;endArrow=block;endFill=1;" edge="1" parent="1" target="5fFiv4stRQdmLSJkmqLu-7">
          <mxGeometry relative="1" as="geometry">
            <mxPoint x="165" y="249" as="sourcePoint" />
            <Array as="points">
              <mxPoint x="300" y="249" />
            </Array>
          </mxGeometry>
        </mxCell>
        <mxCell id="5fFiv4stRQdmLSJkmqLu-10" value="getListOfTariffs()" style="edgeLabel;html=1;align=center;verticalAlign=middle;resizable=0;points=[];" vertex="1" connectable="0" parent="5fFiv4stRQdmLSJkmqLu-8">
          <mxGeometry x="-0.2085" y="-1" relative="1" as="geometry">
            <mxPoint x="18" y="-11" as="offset" />
          </mxGeometry>
        </mxCell>
        <mxCell id="5fFiv4stRQdmLSJkmqLu-11" style="rounded=0;orthogonalLoop=1;jettySize=auto;html=1;dashed=1;endArrow=open;endFill=0;" edge="1" parent="1">
          <mxGeometry relative="1" as="geometry">
            <mxPoint x="325" y="290" as="sourcePoint" />
            <mxPoint x="165" y="290" as="targetPoint" />
            <Array as="points">
              <mxPoint x="300" y="290" />
            </Array>
          </mxGeometry>
        </mxCell>
        <mxCell id="5fFiv4stRQdmLSJkmqLu-12" value="tariffsID&#39;s" style="edgeLabel;html=1;align=center;verticalAlign=middle;resizable=0;points=[];" vertex="1" connectable="0" parent="5fFiv4stRQdmLSJkmqLu-11">
          <mxGeometry x="0.1534" y="-1" relative="1" as="geometry">
            <mxPoint x="20" y="-9" as="offset" />
          </mxGeometry>
        </mxCell>
        <mxCell id="5fFiv4stRQdmLSJkmqLu-15" style="rounded=0;orthogonalLoop=1;jettySize=auto;html=1;entryX=0;entryY=0;entryDx=0;entryDy=5;entryPerimeter=0;endArrow=block;endFill=1;" edge="1" parent="1">
          <mxGeometry relative="1" as="geometry">
            <mxPoint x="165" y="319" as="sourcePoint" />
            <mxPoint x="325" y="319" as="targetPoint" />
          </mxGeometry>
        </mxCell>
        <mxCell id="5fFiv4stRQdmLSJkmqLu-16" value="changeTariff(tariffID)" style="edgeLabel;html=1;align=center;verticalAlign=middle;resizable=0;points=[];" vertex="1" connectable="0" parent="5fFiv4stRQdmLSJkmqLu-15">
          <mxGeometry x="-0.1929" y="2" relative="1" as="geometry">
            <mxPoint x="17" y="-8" as="offset" />
          </mxGeometry>
        </mxCell>
        <mxCell id="5fFiv4stRQdmLSJkmqLu-17" style="rounded=0;orthogonalLoop=1;jettySize=auto;html=1;endArrow=open;endFill=0;dashed=1;" edge="1" parent="1">
          <mxGeometry relative="1" as="geometry">
            <mxPoint x="325" y="349" as="sourcePoint" />
            <mxPoint x="165" y="349" as="targetPoint" />
          </mxGeometry>
        </mxCell>
        <mxCell id="5fFiv4stRQdmLSJkmqLu-19" value="Form" style="edgeLabel;html=1;align=center;verticalAlign=middle;resizable=0;points=[];" vertex="1" connectable="0" parent="5fFiv4stRQdmLSJkmqLu-17">
          <mxGeometry x="0.1714" relative="1" as="geometry">
            <mxPoint x="20" y="-9" as="offset" />
          </mxGeometry>
        </mxCell>
        <mxCell id="5fFiv4stRQdmLSJkmqLu-23" value=":Ulozisko" style="shape=umlLifeline;perimeter=lifelinePerimeter;whiteSpace=wrap;html=1;container=1;dropTarget=0;collapsible=0;recursiveResize=0;outlineConnect=0;portConstraint=eastwest;newEdgeStyle={&quot;curved&quot;:0,&quot;rounded&quot;:0};" vertex="1" parent="1">
          <mxGeometry x="460" y="122" width="100" height="598" as="geometry" />
        </mxCell>
        <mxCell id="5fFiv4stRQdmLSJkmqLu-51" value="" style="html=1;points=[[0,0,0,0,5],[0,1,0,0,-5],[1,0,0,0,5],[1,1,0,0,-5]];perimeter=orthogonalPerimeter;outlineConnect=0;targetShapes=umlLifeline;portConstraint=eastwest;newEdgeStyle={&quot;curved&quot;:0,&quot;rounded&quot;:0};fillColor=#CCCCCC;" vertex="1" parent="5fFiv4stRQdmLSJkmqLu-23">
          <mxGeometry x="45" y="498" width="10" height="40" as="geometry" />
        </mxCell>
        <mxCell id="5fFiv4stRQdmLSJkmqLu-31" value="alt" style="shape=umlFrame;whiteSpace=wrap;html=1;pointerEvents=0;" vertex="1" parent="1">
          <mxGeometry x="115" y="190" width="545" height="300" as="geometry" />
        </mxCell>
        <mxCell id="5fFiv4stRQdmLSJkmqLu-33" value="" style="endArrow=none;dashed=1;html=1;rounded=0;exitX=0.001;exitY=0.449;exitDx=0;exitDy=0;exitPerimeter=0;entryX=1;entryY=0.6;entryDx=0;entryDy=0;entryPerimeter=0;" edge="1" parent="1" target="5fFiv4stRQdmLSJkmqLu-31">
          <mxGeometry width="50" height="50" relative="1" as="geometry">
            <mxPoint x="115.54499999999996" y="372.2800000000001" as="sourcePoint" />
            <mxPoint x="659.4549999999999" y="373.80000000000007" as="targetPoint" />
          </mxGeometry>
        </mxCell>
        <mxCell id="5fFiv4stRQdmLSJkmqLu-34" value="[ changeTariffEvent == true]" style="text;html=1;align=center;verticalAlign=middle;resizable=0;points=[];autosize=1;strokeColor=none;fillColor=none;" vertex="1" parent="1">
          <mxGeometry x="167" y="188" width="170" height="30" as="geometry" />
        </mxCell>
        <mxCell id="5fFiv4stRQdmLSJkmqLu-35" value="[ defineTariffEvent == true]" style="text;html=1;align=center;verticalAlign=middle;resizable=0;points=[];autosize=1;strokeColor=none;fillColor=none;" vertex="1" parent="1">
          <mxGeometry x="165" y="380" width="160" height="30" as="geometry" />
        </mxCell>
        <mxCell id="5fFiv4stRQdmLSJkmqLu-39" value="" style="rounded=0;orthogonalLoop=1;jettySize=auto;html=1;dashed=1;endArrow=open;endFill=0;exitX=0;exitY=1;exitDx=0;exitDy=-5;exitPerimeter=0;" edge="1" parent="1" source="5fFiv4stRQdmLSJkmqLu-36" target="5fFiv4stRQdmLSJkmqLu-6">
          <mxGeometry relative="1" as="geometry">
            <mxPoint x="320" y="470" as="sourcePoint" />
            <mxPoint x="167" y="470" as="targetPoint" />
          </mxGeometry>
        </mxCell>
        <mxCell id="5fFiv4stRQdmLSJkmqLu-40" value="Form" style="edgeLabel;html=1;align=center;verticalAlign=middle;resizable=0;points=[];" vertex="1" connectable="0" parent="5fFiv4stRQdmLSJkmqLu-39">
          <mxGeometry x="-0.1429" relative="1" as="geometry">
            <mxPoint x="-9" y="-10" as="offset" />
          </mxGeometry>
        </mxCell>
        <mxCell id="5fFiv4stRQdmLSJkmqLu-37" style="rounded=0;orthogonalLoop=1;jettySize=auto;html=1;endArrow=block;endFill=1;" edge="1" parent="1">
          <mxGeometry relative="1" as="geometry">
            <mxPoint x="165" y="430" as="sourcePoint" />
            <mxPoint x="325" y="430" as="targetPoint" />
          </mxGeometry>
        </mxCell>
        <mxCell id="5fFiv4stRQdmLSJkmqLu-38" value="addNewTariff()" style="edgeLabel;html=1;align=center;verticalAlign=middle;resizable=0;points=[];" vertex="1" connectable="0" parent="5fFiv4stRQdmLSJkmqLu-37">
          <mxGeometry x="-0.2071" relative="1" as="geometry">
            <mxPoint x="17" y="-15" as="offset" />
          </mxGeometry>
        </mxCell>
        <mxCell id="5fFiv4stRQdmLSJkmqLu-42" style="rounded=0;orthogonalLoop=1;jettySize=auto;html=1;endArrow=block;endFill=1;" edge="1" parent="1">
          <mxGeometry relative="1" as="geometry">
            <mxPoint x="165" y="538" as="sourcePoint" />
            <mxPoint x="325" y="538" as="targetPoint" />
          </mxGeometry>
        </mxCell>
        <mxCell id="5fFiv4stRQdmLSJkmqLu-43" value="FilledForm" style="edgeLabel;html=1;align=center;verticalAlign=middle;resizable=0;points=[];" vertex="1" connectable="0" parent="5fFiv4stRQdmLSJkmqLu-42">
          <mxGeometry x="-0.2071" relative="1" as="geometry">
            <mxPoint x="17" y="-8" as="offset" />
          </mxGeometry>
        </mxCell>
        <mxCell id="5fFiv4stRQdmLSJkmqLu-46" style="rounded=0;orthogonalLoop=1;jettySize=auto;html=1;dashed=1;endArrow=open;endFill=0;" edge="1" parent="1">
          <mxGeometry relative="1" as="geometry">
            <mxPoint x="325" y="577" as="sourcePoint" />
            <mxPoint x="165" y="577" as="targetPoint" />
          </mxGeometry>
        </mxCell>
        <mxCell id="5fFiv4stRQdmLSJkmqLu-47" value="Form" style="edgeLabel;html=1;align=center;verticalAlign=middle;resizable=0;points=[];" vertex="1" connectable="0" parent="5fFiv4stRQdmLSJkmqLu-46">
          <mxGeometry x="-0.45" relative="1" as="geometry">
            <mxPoint x="-37" y="-11" as="offset" />
          </mxGeometry>
        </mxCell>
        <mxCell id="5fFiv4stRQdmLSJkmqLu-48" value="loop" style="shape=umlFrame;whiteSpace=wrap;html=1;pointerEvents=0;" vertex="1" parent="1">
          <mxGeometry x="115" y="500" width="545" height="100" as="geometry" />
        </mxCell>
        <mxCell id="5fFiv4stRQdmLSJkmqLu-49" value="[ formIsValid == False]" style="text;html=1;align=center;verticalAlign=middle;resizable=0;points=[];autosize=1;strokeColor=none;fillColor=none;" vertex="1" parent="1">
          <mxGeometry x="175" y="496" width="140" height="30" as="geometry" />
        </mxCell>
        <mxCell id="5fFiv4stRQdmLSJkmqLu-52" style="edgeStyle=orthogonalEdgeStyle;rounded=0;orthogonalLoop=1;jettySize=auto;html=1;curved=0;endArrow=block;endFill=1;" edge="1" parent="1">
          <mxGeometry relative="1" as="geometry">
            <mxPoint x="335" y="622" as="sourcePoint" />
            <mxPoint x="505" y="622" as="targetPoint" />
          </mxGeometry>
        </mxCell>
        <mxCell id="5fFiv4stRQdmLSJkmqLu-53" value="insertDB" style="edgeLabel;html=1;align=center;verticalAlign=middle;resizable=0;points=[];" vertex="1" connectable="0" parent="5fFiv4stRQdmLSJkmqLu-52">
          <mxGeometry x="0.0118" y="-1" relative="1" as="geometry">
            <mxPoint x="-2" y="-10" as="offset" />
          </mxGeometry>
        </mxCell>
      </root>
    </mxGraphModel>
  </diagram>
</mxfile>
